<svg xmlns="http://www.w3.org/2000/svg" viewBox="0 0 20 20" aria-hidden="true">
  <path fill="#a7aaad" d="M2.5 3.5A1.5 1.5 0 0 1 4 2h12a1.5 1.5 0 0 1 1.5 1.5v9A1.5 1.5 0 0 1 16 14H4a1.5 1.5 0 0 1-1.5-1.5v-9ZM4 4a.5.5 0 0 0-.5.5v7.75c0 .41.34.75.75.75H15.75a.75.75 0 0 0 .75-.75V4.5A.5.5 0 0 0 16 4H4Z"/>
  <path fill="#a7aaad" d="M6.1 16.5h7.8a.75.75 0 0 1 0 1.5H6.1a.75.75 0 0 1 0-1.5Zm2.15-2.6h3.5c.41 0 .75.34.75.75v1.85h-5v-1.85c0-.41.34-.75.75-.75Z"/>
  <path fill="#a7aaad" d="M6.15 6.15a.75.75 0 0 1 1.06 0L8.5 7.44l2.29-2.29a.75.75 0 0 1 1.06 1.06L9.56 8.5l2.29 2.29a.75.75 0 1 1-1.06 1.06L8.5 9.56l-1.29 1.29a.75.75 0 0 1-1.06-1.06L7.44 8.5 6.15 7.21a.75.75 0 0 1 0-1.06Z"/>
  <path fill="#a7aaad" d="M12.9 6h1.6a.5.5 0 1 1 0 1h-1.6a.5.5 0 1 1 0-1Zm0 2h1.6a.5.5 0 1 1 0 1h-1.6a.5.5 0 1 1 0-1Zm0 2h1.6a.5.5 0 1 1 0 1h-1.6a.5.5 0 1 1 0-1Z"/>
</svg>
